<svg class="custom-svg" xmlns="http://www.w3.org/2000/svg" xmlns:xlink="http://www.w3.org/1999/xlink" 
     version="1.1" width="450px" height="75px" 
     viewBox="0 0 400 350" 
     style="shape-rendering:geometricPrecision; text-rendering:geometricPrecision; image-rendering:optimizeQuality; fill-rule:evenodd; clip-rule:evenodd   ">
    <g><path style="opacity:1" fill="#fefefe" d="M -0.5,-0.5 C 166.167,-0.5 332.833,-0.5 499.5,-0.5C 499.5,166.167 499.5,332.833 499.5,499.5C 332.833,499.5 166.167,499.5 -0.5,499.5C -0.5,332.833 -0.5,166.167 -0.5,-0.5 Z"/></g>
    <g><path style="opacity:1" fill="#010101" d="M 293.5,233.5 C 293.5,224.5 293.5,215.5 293.5,206.5C 317.5,206.5 341.5,206.5 365.5,206.5C 365.5,218.167 365.5,229.833 365.5,241.5C 363.323,251.854 358.989,261.187 352.5,269.5C 335.616,263.025 322.783,267.692 314,283.5C 312.734,287.395 312.234,291.395 312.5,295.5C 305.524,296.353 298.524,297.02 291.5,297.5C 285.675,297.549 280.008,296.716 274.5,295C 266.173,294.5 257.84,294.334 249.5,294.5C 248.507,289.687 247.007,285.02 245,280.5C 239.817,274.76 234.65,269.093 229.5,263.5C 221.007,262.834 212.34,262.5 203.5,262.5C 194.473,262.502 185.807,263.169 177.5,264.5C 173.645,274.06 169.979,283.727 166.5,293.5C 153.513,294.666 140.513,294.833 127.5,294C 142.329,257.517 157.162,221.017 172,184.5C 194.061,176.054 206.227,160.054 208.5,136.5C 214.206,136.171 219.872,136.505 225.5,137.5C 228.569,145.207 231.736,152.874 235,160.5C 252.546,139.532 275.046,130.698 302.5,134C 323.435,135.466 340.435,144.299 353.5,160.5C 346.352,168.816 339.019,176.982 331.5,185C 327.053,181.57 322.719,177.57 318.5,173C 298.915,161.034 281.415,163.534 266,180.5C 258.016,190.117 254.683,201.117 256,213.5C 261.862,227.42 267.529,241.42 273,255.5C 282.366,263.881 293.199,266.381 305.5,263C 320.267,258.617 328.267,248.783 329.5,233.5C 317.5,233.5 305.5,233.5 293.5,233.5 Z"/></g>
    <!-- Remaining SVG paths omitted for brevity -->


<g><path style="opacity:1" fill="#f9f9f9" d="M 216.5,230.5 C 207.983,230.826 199.65,230.493 191.5,229.5C 196.498,214.675 201.998,200.008 208,185.5C 210.866,190.569 213.199,195.902 215,201.5C 215.467,211.173 215.967,220.84 216.5,230.5 Z"/></g>
<g><path style="opacity:1" fill="#636363" d="M 365.5,241.5 C 365.5,229.833 365.5,218.167 365.5,206.5C 341.5,206.5 317.5,206.5 293.5,206.5C 293.5,215.5 293.5,224.5 293.5,233.5C 292.506,224.348 292.173,215.015 292.5,205.5C 317.167,205.5 341.833,205.5 366.5,205.5C 366.828,217.678 366.495,229.678 365.5,241.5 Z"/></g>
<g><path style="opacity:1" fill="#ababab" d="M 191.5,229.5 C 199.65,230.493 207.983,230.826 216.5,230.5C 207.991,231.821 199.325,231.821 190.5,230.5C 190.624,229.893 190.957,229.56 191.5,229.5 Z"/></g>
<g><path style="opacity:1" fill="#ababab" d="M 229.5,263.5 C 212.09,263.181 194.756,263.515 177.5,264.5C 185.807,263.169 194.473,262.502 203.5,262.5C 212.34,262.5 221.007,262.834 229.5,263.5 Z"/></g>
<g><path style="opacity:1" fill="#040404" d="M 335.5,282.5 C 347.544,281.375 352.378,286.709 350,298.5C 343,307.833 336,307.833 329,298.5C 328.333,295.167 328.333,291.833 329,288.5C 331.063,286.266 333.229,284.266 335.5,282.5 Z"/></g>
<g><path style="opacity:1" fill="#0f0f0f" d="M 165.5,315.5 C 173.658,314.823 177.158,318.49 176,326.5C 171.833,332.759 167.167,333.092 162,327.5C 160.593,322.643 161.76,318.643 165.5,315.5 Z"/></g>
<g><path style="opacity:1" fill="#171717" d="M 204.5,315.5 C 206.527,315.338 208.527,315.505 210.5,316C 211.973,316.71 212.64,317.876 212.5,319.5C 204.051,317.444 201.717,320.278 205.5,328C 207.641,328.884 209.307,328.384 210.5,326.5C 209.675,325.614 208.675,325.281 207.5,325.5C 207.5,324.5 207.5,323.5 207.5,322.5C 209.5,322.5 211.5,322.5 213.5,322.5C 214.087,330.887 210.42,333.387 202.5,330C 198.072,324.332 198.738,319.498 204.5,315.5 Z"/></g>
<g><path style="opacity:1" fill="#0e0e0e" d="M 262.5,315.5 C 265.893,315.062 268.893,315.895 271.5,318C 268.427,318.05 265.427,318.883 262.5,320.5C 260.638,324.776 261.971,327.442 266.5,328.5C 270.327,327.215 270.327,326.215 266.5,325.5C 266.5,324.5 266.5,323.5 266.5,322.5C 268.5,322.5 270.5,322.5 272.5,322.5C 273.008,329.825 269.674,332.658 262.5,331C 257.197,325.76 257.197,320.594 262.5,315.5 Z"/></g>
<g><path style="opacity:1" fill="#121212" d="M 378.5,315.5 C 381.482,315.104 384.149,315.771 386.5,317.5C 386.167,318.5 385.5,319.167 384.5,319.5C 382.929,318.691 381.262,318.357 379.5,318.5C 379.281,319.675 379.614,320.675 380.5,321.5C 382.811,322.214 384.978,323.214 387,324.5C 387.538,330.519 384.705,332.686 378.5,331C 377.027,330.29 376.36,329.124 376.5,327.5C 386.573,328.431 386.907,327.098 377.5,323.5C 376.102,320.565 376.435,317.898 378.5,315.5 Z"/></g>
<g><path style="opacity:1" fill="#151515" d="M 117.5,315.5 C 118.978,315.238 120.311,315.571 121.5,316.5C 123.5,321.167 125.5,325.833 127.5,330.5C 126.311,331.429 124.978,331.762 123.5,331.5C 123.5,330.5 123.5,329.5 123.5,328.5C 120.813,328.336 118.146,328.503 115.5,329C 114.372,331.065 112.706,331.732 110.5,331C 112.976,325.882 115.31,320.715 117.5,315.5 Z"/></g>
<g><path style="opacity:1" fill="#060606" d="M 132.5,315.5 C 135.833,315.5 139.167,315.5 142.5,315.5C 142.5,316.5 142.5,317.5 142.5,318.5C 140.167,318.5 137.833,318.5 135.5,318.5C 135.5,319.5 135.5,320.5 135.5,321.5C 137.5,321.5 139.5,321.5 141.5,321.5C 141.5,322.5 141.5,323.5 141.5,324.5C 139.5,324.5 137.5,324.5 135.5,324.5C 135.5,326.833 135.5,329.167 135.5,331.5C 134.5,331.5 133.5,331.5 132.5,331.5C 132.5,326.167 132.5,320.833 132.5,315.5 Z"/></g>
<g><path style="opacity:1" fill="#191919" d="M 146.5,315.5 C 149.833,315.5 153.167,315.5 156.5,315.5C 156.5,316.5 156.5,317.5 156.5,318.5C 154.5,318.5 152.5,318.5 150.5,318.5C 150.5,319.5 150.5,320.5 150.5,321.5C 152.167,321.5 153.833,321.5 155.5,321.5C 155.5,322.5 155.5,323.5 155.5,324.5C 153.833,324.5 152.167,324.5 150.5,324.5C 150.5,326.833 150.5,329.167 150.5,331.5C 149.167,331.5 147.833,331.5 146.5,331.5C 146.5,326.167 146.5,320.833 146.5,315.5 Z"/></g>
<g><path style="opacity:1" fill="#0c0c0c" d="M 186.5,325.5 C 186.44,324.957 186.107,324.624 185.5,324.5C 184.526,326.743 184.192,329.076 184.5,331.5C 183.5,331.5 182.5,331.5 181.5,331.5C 181.5,326.167 181.5,320.833 181.5,315.5C 184.518,315.335 187.518,315.502 190.5,316C 193.167,319 193.167,322 190.5,325C 191.64,326.973 192.973,328.807 194.5,330.5C 193.635,331.583 192.635,331.749 191.5,331C 189.7,329.188 188.033,327.355 186.5,325.5 Z"/></g>
<g><path style="opacity:1" fill="#181818" d="M 224.5,315.5 C 226.167,315.5 227.833,315.5 229.5,315.5C 230.808,320.923 232.808,326.089 235.5,331C 233.294,331.732 231.628,331.065 230.5,329C 226.57,327.862 223.236,328.695 220.5,331.5C 219.833,331.333 219.167,331.167 218.5,331C 221.192,326.089 223.192,320.923 224.5,315.5 Z"/></g>
<g><path style="opacity:1" fill="#090909" d="M 240.5,315.5 C 249.708,313.887 253.875,317.554 253,326.5C 252.215,328.286 251.049,329.786 249.5,331C 246.518,331.498 243.518,331.665 240.5,331.5C 240.5,326.167 240.5,320.833 240.5,315.5 Z"/></g>
<g><path style="opacity:1" fill="#060606" d="M 277.5,315.5 C 280.833,315.5 284.167,315.5 287.5,315.5C 287.5,316.5 287.5,317.5 287.5,318.5C 285.167,318.5 282.833,318.5 280.5,318.5C 280.5,319.5 280.5,320.5 280.5,321.5C 282.5,321.5 284.5,321.5 286.5,321.5C 286.5,322.5 286.5,323.5 286.5,324.5C 284.5,324.5 282.5,324.5 280.5,324.5C 280.5,325.833 280.5,327.167 280.5,328.5C 282.833,328.5 285.167,328.5 287.5,328.5C 287.5,329.5 287.5,330.5 287.5,331.5C 284.167,331.5 280.833,331.5 277.5,331.5C 277.5,326.167 277.5,320.833 277.5,315.5 Z"/></g>
<g><path style="opacity:1" fill="#030303" d="M 292.5,315.5 C 296.167,315.5 299.833,315.5 303.5,315.5C 303.5,316.5 303.5,317.5 303.5,318.5C 302.167,318.5 300.833,318.5 299.5,318.5C 299.5,322.833 299.5,327.167 299.5,331.5C 298.5,331.5 297.5,331.5 296.5,331.5C 296.5,327.167 296.5,322.833 296.5,318.5C 295.167,318.5 293.833,318.5 292.5,318.5C 292.5,317.5 292.5,316.5 292.5,315.5 Z"/></g>
<g><path style="opacity:1" fill="#151515" d="M 314.5,315.5 C 315.978,315.238 317.311,315.571 318.5,316.5C 320.5,321.167 322.5,325.833 324.5,330.5C 323.311,331.429 321.978,331.762 320.5,331.5C 320.5,330.5 320.5,329.5 320.5,328.5C 317.813,328.336 315.146,328.503 312.5,329C 311.372,331.065 309.706,331.732 307.5,331C 309.976,325.882 312.31,320.715 314.5,315.5 Z"/></g>
<g><path style="opacity:1" fill="#0a0a0a" d="M 329.5,315.5 C 332.518,315.335 335.518,315.502 338.5,316C 340.673,317.865 341.007,320.031 339.5,322.5C 342.335,325.671 342.002,328.504 338.5,331C 335.518,331.498 332.518,331.665 329.5,331.5C 329.5,326.167 329.5,320.833 329.5,315.5 Z"/></g>
<g><path style="opacity:1" fill="#050505" d="M 346.5,315.5 C 347.5,315.5 348.5,315.5 349.5,315.5C 349.5,319.833 349.5,324.167 349.5,328.5C 351.833,328.5 354.167,328.5 356.5,328.5C 356.5,329.5 356.5,330.5 356.5,331.5C 353.167,331.5 349.833,331.5 346.5,331.5C 346.5,326.167 346.5,320.833 346.5,315.5 Z"/></g>
<g><path style="opacity:1" fill="#060606" d="M 360.5,315.5 C 363.833,315.5 367.167,315.5 370.5,315.5C 370.5,316.5 370.5,317.5 370.5,318.5C 368.167,318.5 365.833,318.5 363.5,318.5C 363.5,319.5 363.5,320.5 363.5,321.5C 365.5,321.5 367.5,321.5 369.5,321.5C 369.5,322.5 369.5,323.5 369.5,324.5C 367.5,324.5 365.5,324.5 363.5,324.5C 363.5,325.833 363.5,327.167 363.5,328.5C 365.833,328.5 368.167,328.5 370.5,328.5C 370.5,329.5 370.5,330.5 370.5,331.5C 367.167,331.5 363.833,331.5 360.5,331.5C 360.5,326.167 360.5,320.833 360.5,315.5 Z"/></g>
<g><path style="opacity:1" fill="#ebebeb" d="M 166.5,318.5 C 173.821,319.319 175.154,322.486 170.5,328C 165.008,328.486 163.175,325.986 165,320.5C 165.717,319.956 166.217,319.289 166.5,318.5 Z"/></g>
<g><path style="opacity:1" fill="#cacaca" d="M 184.5,318.5 C 186.167,318.5 187.833,318.5 189.5,318.5C 189.616,321.91 187.95,323.244 184.5,322.5C 184.5,321.167 184.5,319.833 184.5,318.5 Z"/></g>
<g><path style="opacity:1" fill="#efefef" d="M 243.5,318.5 C 250.252,318.834 251.919,322 248.5,328C 246.866,328.494 245.199,328.66 243.5,328.5C 243.5,325.167 243.5,321.833 243.5,318.5 Z"/></g>
<g><path style="opacity:1" fill="#e9e9e9" d="M 332.5,318.5 C 334.167,318.5 335.833,318.5 337.5,318.5C 337.5,319.5 337.5,320.5 337.5,321.5C 335.833,321.5 334.167,321.5 332.5,321.5C 332.5,320.5 332.5,319.5 332.5,318.5 Z"/></g>
<g><path style="opacity:1" fill="#bdbdbd" d="M 118.5,320.5 C 122.546,323.464 122.213,325.131 117.5,325.5C 117.629,323.784 117.962,322.117 118.5,320.5 Z"/></g>
<g><path style="opacity:1" fill="#e2e2e2" d="M 226.5,320.5 C 228.104,321.287 228.771,322.62 228.5,324.5C 227.325,324.719 226.325,324.386 225.5,323.5C 226.127,322.583 226.461,321.583 226.5,320.5 Z"/></g>
<g><path style="opacity:1" fill="#bdbdbd" d="M 315.5,320.5 C 319.546,323.464 319.213,325.131 314.5,325.5C 314.629,323.784 314.962,322.117 315.5,320.5 Z"/></g>
<g><path style="opacity:1" fill="#808080" d="M 186.5,325.5 C 185.833,327.5 185.167,329.5 184.5,331.5C 184.192,329.076 184.526,326.743 185.5,324.5C 186.107,324.624 186.44,324.957 186.5,325.5 Z"/></g>
<g><path style="opacity:1" fill="#dcdcdc" d="M 332.5,324.5 C 334.977,324.051 336.977,324.717 338.5,326.5C 336.977,328.283 334.977,328.949 332.5,328.5C 332.5,327.167 332.5,325.833 332.5,324.5 Z"/></g>
</svg>



